# xmcd CD database file
#
# Track frame offsets:
#	150
#	16547
#	36195
#	52746
#	77770
#	91336
#	109195
#	129544
#	143269
#	157199
#
# Disc length: 2553 seconds
#
# Revision: 5
# Processed by: cddbd v1.5.1PL0 Copyright (c) Steve Scherf et al.
# Submitted via: CDex 1.50
#
DISCID=6e09f70a
DTITLE=Joss Stone - The Soul Sessions
DYEAR=2003
DGENRE=Soul
TTITLE0=The Chokin' Kind
TTITLE1=Super Duper Love (Are You Diggin' On Me?)
TTITLE2=Fell In Love With A Boy
TTITLE3=Victim Of A Foolish Heart
TTITLE4=Dirty Man
TTITLE5=Some Kind Of Wonderful
TTITLE6=I've Fallen In Love With You
TTITLE7=I Had A Dream
TTITLE8=All The King's Horses
TTITLE9=For The Love Of You (Pts. 1 and 2)
EXTD=YEAR: 2003
EXTT0=
EXTT1=(Are you diggin' on me?) Pt.1
EXTT2=
EXTT3=
EXTT4=
EXTT5=
EXTT6=
EXTT7=
EXTT8=
EXTT9=
PLAYORDER=
